<svg xmlns="http://www.w3.org/2000/svg" width="125" height="146" fill="none" viewBox="0 0 125 146">
  <path fill="#4D4D4D" d="M27.651 51.813c-1.721 1.064-3.067 2.536-4.32 4.007-8.357 9.954-13.585 21.505-18.186 33.024C2.672 95.042.325 101.49.794 107.94c.062.72.156 1.471.532 2.097.344.626.939 1.096 1.534 1.534.97.72 1.972 1.408 3.005 2.003.782.47 1.627.908 2.598.97.845.032 1.69-.218 2.473-.594 3.161-1.503 5.07-4.476 6.135-7.419 1.064-2.974 1.44-6.041 2.598-8.984.97-2.473 2.442-4.758 3.788-7.106 1.878-3.286 3.537-6.635 5.165-10.016 1.784-3.663 3.568-7.325 4.852-11.113 1.127-3.255 1.878-6.636 3.63-9.735.877-1.534 1.973-2.974 2.474-4.601 1.972-6.23-7.92-5.603-11.927-3.162Z"/>
  <path fill="#333" d="M97.275 126.458c-.157-7.638-.438-15.276-.908-22.913-.595-9.955-.97-20.19-2.786-30.051-1.158-6.198-3.537-12.803-9.297-16.465-1.44-2.974-3.537-5.478-6.698-6.887-.97-1.44-2.849-1.627-4.352-.939-1.189-.595-2.754-.688-4.006.313-1.002.783-1.878 1.628-2.723 2.505-3.82-.345-7.67-1.002-11.457-.345-3.882.657-9.36-.282-14.18-.125-.658-2.035-3.538-3.443-5.353-1.315-1.346 1.534-2.536 3.162-3.663 4.79-1.001 1.158-1.846 2.504-2.566 4.038-4.602 7.888-7.356 16.59-8.922 25.511-5.446 19.783-5.822 40.85-4.914 61.416 0 .125-.031.282 0 .407l.626 16.841c.188 5.196 0 10.549 1.19 15.651 1.815 7.763 7.293 6.104 17.216 6.793 1.94.125 3.756 1.377 3.506.125l2.473.094c.282 0 .595.031.876.031h.25c3.35.094 6.73.063 9.767 0 .313 0 .595 0 .908-.031.845 1.252 2.692 2.003 4.288 1.564.877-.25 1.753-.469 2.63-.688.313.094.657.156 1.033.188l2.16.094c1.22.751 2.817.877 4.006 0a71.254 71.254 0 0 0 17.467-2.661l4.79-.532a4.744 4.744 0 0 0 1.565-.47c1.69.188 3.6-.594 4.1-2.441 4.727-18.093 5.134-36.342 2.974-54.498Z"/>
  <path fill="#EDD5BE" d="M70.23 17.094c0-8.233-7.858-14.9-17.593-14.9-9.704 0-17.592 6.667-17.592 14.9 0 1.377.25 2.692.657 3.975 0 .313.032.658.032 1.002-.063 2.974.094 5.947.72 8.89 1.252 5.697 4.476 10.987 10.58 14.242 2.035 1.065 4.383 1.91 6.824 1.879 3.287-.032 6.292-1.565 8.546-3.475 7.512-6.292 8.17-15.745 7.637-24.698a8.66 8.66 0 0 0 .188-1.815Z"/>
  <path fill="#333" d="M74.609 19.252c-.188-2.41-.564-4.727-1.19-7.043v-.031a562.786 562.786 0 0 1-1.158-7.106c-.094-.657-.501-1.22-1.19-1.346a96.469 96.469 0 0 0-7.92-1.158c-1.784-.94-4.037-1.378-6.04-1.19-1.44-.188-2.912-.125-4.133.032-.75.093-1.565.25-2.347.5a35.65 35.65 0 0 0-4.1.157C43.587-.688 36.794.095 34.76 3.507c-.408.689-.627 1.346-.69 1.972-2.66.657-5.29 2.285-6.072 5.008-.407 1.346-.219 2.849.626 3.976.47.657 1.158 1.001 1.878 1.314.282.345.626.69.97 1.002.314.532.752.97 1.41 1.346.25.157.531.188.782.188.188.125.376.219.532.313 1.19.72 2.316-.626 2.066-1.753.157-.313.188-.689.125-1.064.501-.595.97-1.284 1.44-1.784.563-.282 1.096-.564 1.69-.814.063-.032.126-.032.188-.063.094-.031.157-.063.25-.094a5.109 5.109 0 0 1 2.536-.25c.094.031.157.062.25.062.658.188 1.315.376 2.004.533.407.156.845.344 1.252.532.438.187.877.125 1.252-.063 3.944.595 8.076.626 12.083.407 1.847 1.628 5.165 1.22 6.98-.344l.032-.032a3.334 3.334 0 0 1-.501 2.066c-.25.407-.22 1.096.063 1.471.813 1.002 1.189 2.098 1.126 3.381-.031 1.033 1.096 1.503 1.91 1.315.25-.063.219.814.125 1.69-.094-.219-.344-.375-.657-.281a159.72 159.72 0 0 1-5.51 1.627c-.187-.595-.563-1.095-1.252-1.377-1.001-.407-2.316-.25-3.349-.25-2.16 0-4.32.03-6.48 0-.281 0-.47.156-.532.344h-.907c-.345 0-.627.25-.627.563 0 .752 0 1.471.032 2.223-.407-.032-.783-.063-1.159-.063-.845-.031-1.69-.031-2.535-.031a194.5 194.5 0 0 0-.094-1.19c.031-.344.063-.657.063-1.002 0-.313-.282-.563-.626-.563h-.157c-.031 0-.063-.031-.125-.031-1.94-.094-3.882-.22-5.822-.313-1.347-.063-3.162-.501-4.414-.063-1.847.626-1.565 2.786-1.346 4.54-.188.75-.22 1.502.188 1.94.313.376.751.407 1.19.47 1.44.25 3.13.03 4.57.03 1.408 0 4.538.627 5.728-.375.532-.47.751-1.315.814-2.254h.094c.03.188.156.345.407.376 1.095.188 2.222.282 3.318.22.25.876.876 1.627 2.034 2.003 1.503.532 3.569.125 5.165.187.908.031 1.784.032 2.536-.281a19.31 19.31 0 0 0 1.94-.282c.157-.032.282-.157.376-.282.188-.031.376-.156.438-.344.282-.845.689-2.098.689-3.256 1.878-.563 3.788-1.095 5.697-1.628a.454.454 0 0 0 .282-.187c-.094.594-.188 1.127-.22 1.22-.344 1.378-.97 2.536-1.721 3.694-.313.47-.157 1.409.313 1.753.344.25.689.407 1.002.564-.439 2.097-1.534 4.1-2.661 6.01-1.252 2.128-4.382 4.006-6.292 5.666-1.91 1.69-4.539 2.88-7.23 2.692-.345-.032-.72-.063-1.034-.22-.657-.313-.908-1.033-1.127-1.69-.188-.657-.407-1.346-1.064-1.722-.626-.375-1.753-.03-1.659.627.063.438.563.75.563 1.189 0 .5-.688.782-1.252.657-.532-.125-.907-.532-1.283-.939-.845-.939-1.69-1.878-2.504-2.786-.345-.407-.751-.72-1.284-.5.689 1.47 2.066 2.88 3.037 4.225.814 1.096 1.659 2.223 2.88 2.974 1.47.877 3.286 1.127 5.07 1.158 2.16.032 4.414-.219 6.136-1.377 1.252-.814 4.288-3.255 5.07-4.445 2.599-3.976 4.258-6.699 5.667-11.113 0-.062.031-.093.031-.156 2.285.063 3.631-2.786 4.226-5.196.47-1.972.689-4.132.282-6.042.438-.219.688-.657.626-1.283ZM44.37 28.111c-.031.094-.093.187-.125.281-1.847.188-3.756.439-5.572.345-.907-.032-1.627-.22-2.128-.626v-.032c0-1.064.03-2.16.03-3.224h3.632c1.44.032 2.849.094 4.288.125.063.532.126 1.159.126 1.722-.094.47-.157.939-.25 1.409Zm16.309-1.096c-.25 1.033-.564 1.753-1.534 2.16a25.46 25.46 0 0 1-4.883.094c-1.346-.125-1.816-.125-1.94-1.377-.032-.22-.032-.439-.032-.658a.691.691 0 0 0 0-.5c0-.533.031-1.096.062-1.629 2.661 0 5.322 0 7.983.032.188.125.313.282.407.47v1.158c-.032.093-.063.156-.063.25Z"/>
  <path fill="#909294" d="M34.228 79.385c-1.753-2.88-3.82-5.478-5.885-8.108-1.847-2.348-2.035-5.572-4.57-7.45-2.473-1.815-5.697-1.847-8.64-1.565a3.19 3.19 0 0 0-1.471.532 2.527 2.527 0 0 0-.751.532c-.908.188-1.784.501-2.724.845-1.815.72-2.379 2.536-1.502 4.226 3.975 7.92 8.138 15.84 14.556 22.1.845.845 1.972.877 2.91.5a5.283 5.283 0 0 0 1.754.314c1.659 0 3.38-.313 5.008-.595 1.69-.282 3.256-.595 4.132-2.254 1.565-2.88-1.346-6.699-2.817-9.077Z"/>
  <path fill="#606060" d="M38.864 85.361C33.731 77.911 28.66 70.43 23.526 62.98c-.689-1.002-1.816-.97-2.567-.439a98.506 98.506 0 0 0-8.045-.062c-1.44.062-3.036 0-3.756 1.44-.22.438.125.876.595.876 3.38.031 6.761.094 10.142.125a.55.55 0 0 0 .72.188 5543.102 5543.102 0 0 1 15.182 22.194c1.314 2.003 4.413 0 3.067-1.941Z"/>
  <path fill="#4D4D4D" d="M66.87 111.785a162.11 162.11 0 0 0-12.334-7.701c-3.099-3.381-6.73-6.292-10.737-8.64-1.283-.75-2.504-.5-3.318.251-.188.031-.407.063-.595.157-.626-.407-1.252-.752-1.846-.908a8.295 8.295 0 0 0-1.159.626c-.062.031-.313.219-.5.344-.188.157-.564.439-.564.439-.157.156-.344.281-.5.438-.063 1.502.844 3.599 1.752 5.29l2.504 4.539c.094.187.188.407.313.594.032.063.063.126.094.157l3.976 7.231c.25.094.532.219.782.375a75.634 75.634 0 0 0 2.661 3.819c1.409 4.038 4.539 7.356 8.483 9.61 5.07 2.88 14.305 7.075 18.03.219 3.663-6.667-1.815-13.272-7.043-16.84Z"/>
  <path fill="#4D4D4D" d="M83.5 67.678c-.752-1.44-2.599-2.004-4.038-1.503-1.159-.031-2.41.188-3.757.814-7.763 3.443-9.547 13.241-11.206 20.597-2.348 10.424-3.882 21.161-2.223 31.835.188 1.252.94 2.034 1.816 2.41a45.256 45.256 0 0 0-.063 3.569c.032 1.972 1.472 2.817 2.943 2.785a4.622 4.622 0 0 0 1.565.407 3.112 3.112 0 0 0 2.316.689c9.641-1.158 8.922-13.585 10.455-20.691 1.002-4.695 2.41-9.203 4.132-13.68 1.597-4.194 3.256-8.482 3.506-13.02.25-4.54-1.596-11.239-5.447-14.212Z"/>
  <path fill="#EDD5BE" d="M35.603 97.605c.313-.063.594-.157.876-.313 1.315-.689 1.847-2.035 2.097-3.443.345-2.004.126-4.07 0-6.104-.814-1.315-1.784-2.536-3.13-3.38-.25.28-.47.594-.72.876l.72 1.846c-1.127-1.252-2.473-2.347-3.913-3.255-1.408-.876-3.318-1.534-4.382-.532-1.033.97-.407 2.786.344 4.194 2.098 3.725 4.946 7.012 8.108 10.111ZM9.22 85.086c.095-.877.189-1.784.69-2.473.594-.814 1.659-1.22 2.285-2.003.813-.97.845-2.38 1.502-3.444a3.635 3.635 0 0 1 2.817-1.753 3.602 3.602 0 0 1 3.037 1.284c1.283 1.565 1.064 3.881.532 5.822a29.06 29.06 0 0 1-3.287 7.732c-.282.47-.595.939-1.033 1.22-.876.533-1.972.251-2.942-.03-1.315-.376-3.381-.502-3.913-1.973-.438-1.252.313-3.099.313-4.382Z"/>
  <path fill="#4D4D4D" d="M62.528 50.798c-6.824-.626-13.773-.094-20.629-.751-.5-.063-1.158.438-1.22.94-.251 1.627-.282 1.502-.094 3.13.03.344.219.625.438.813.156 4.852.688 9.673 1.471 14.462.689 4.194 1.127 8.953 3.287 12.677.375.658 1.283.595 1.69 0a455.023 455.023 0 0 1 11.55-16.402c1.879-2.536 3.882-5.008 5.73-7.575.813-1.127 2.597-2.817 2.41-4.477-.345-2.41-2.599-2.629-4.633-2.817Z"/>
</svg>
