<svg width="168" height="168" viewBox="0 0 168 168" fill="none" xmlns="http://www.w3.org/2000/svg">
<circle cx="84" cy="84" r="84" fill="#2093EE" fill-opacity="0.7"/>
<mask id="mask0_158_757" style="mask-type:alpha" maskUnits="userSpaceOnUse" x="0" y="0" width="168" height="168">
<circle cx="84" cy="84" r="84" fill="#D9D9D9"/>
</mask>
<g mask="url(#mask0_158_757)">
<mask id="mask1_158_757" style="mask-type:alpha" maskUnits="userSpaceOnUse" x="0" y="2" width="168" height="168">
<circle cx="84" cy="86" r="84" fill="#5BFF6B"/>
</mask>
<g mask="url(#mask1_158_757)">
<path d="M100.197 48.103C99.1971 45.9476 96.9776 44.5621 94.664 43.8846C92.3505 43.2072 89.9118 43.2072 87.5046 43.1149C84.8161 42.9917 82.0962 42.7763 79.4388 43.0225C76.7502 43.2689 74.0615 44.0695 71.967 45.7321C69.8722 47.3949 68.4967 50.1044 68.9031 52.7216L68.7467 60.4498C68.3714 66.2383 69.9973 72.1501 73.3424 76.9227C74.2804 78.2773 75.3746 79.5397 76.8127 80.3711C78.5322 81.3563 80.6267 81.5412 82.6275 81.5719C84.8785 81.6027 87.2235 81.3872 89.2243 80.4019C90.8813 79.6014 92.1943 78.2773 93.476 76.9842C95.4144 75.0135 97.3527 72.9198 98.3218 70.3643C99.7599 66.6079 99.0095 62.4203 99.6348 58.4484C99.8848 56.7241 100.417 55.0307 100.698 53.2757C100.948 51.5206 100.948 49.7041 100.197 48.103Z" fill="#B8A293"/>
<path d="M62.7109 55.0252C61.4916 56.4416 58.8344 56.3799 58.1464 58.1042C57.5838 59.4588 58.7091 60.9061 59.9284 61.799C61.1163 62.6919 62.5546 63.4616 62.9922 64.8779C63.3362 65.9556 63.0233 67.2181 63.6486 68.1725C64.399 69.3118 66.0247 69.3733 67.1815 70.0815C67.9944 70.5741 68.5572 71.3747 69.245 71.9905C69.964 72.6063 70.9642 73.0681 71.8397 72.6987C70.4327 68.388 69.7452 63.862 69.8076 59.3665C69.8389 57.7962 70.0265 56.0719 71.1833 55.0252C71.6208 54.6556 72.121 54.3785 72.5275 53.9782C72.9339 53.578 73.1841 52.9313 72.8714 52.4695C72.7463 52.2539 72.5275 52.1001 72.3086 51.9769C70.4016 50.7761 67.963 50.4681 65.8058 51.0223C62.742 51.8537 64.3052 53.147 62.7109 55.0252Z" fill="#776C62"/>
<path d="M62.9937 33.8133C61.9933 35.1373 60.8365 36.6152 61.0553 38.2471C61.1491 39.0168 61.5555 39.6942 61.6493 40.4332C61.7744 41.3568 61.4304 42.2805 61.2116 43.1736C60.8051 44.8977 60.9302 46.9299 62.2121 47.946C63.2439 48.7772 64.7131 48.6542 66.0575 48.4695C74.8111 47.3917 83.565 46.3141 92.3186 45.2056C94.6322 44.9286 96.9456 44.6207 99.1653 43.8201C100.572 43.3275 102.104 42.3422 102.26 40.772C102.354 39.9406 102.01 39.14 101.573 38.4934C100.041 36.2765 97.133 35.0757 96.6641 32.3046C96.4766 31.1962 96.7266 30.0261 96.6954 28.9177C96.6328 25.6847 94.2882 23.0368 91.5684 21.836C88.8485 20.6351 85.7532 20.5736 82.7831 20.4812C79.7819 20.3888 76.7183 20.204 74.0609 18.7877C73.2167 18.3258 72.2787 17.7409 71.3721 18.0795C69.7778 18.6338 68.2458 22.5749 67.6519 24.2683C66.4013 27.8092 65.276 30.8266 62.9937 33.8133Z" fill="#97A8B2"/>
<path d="M64.2793 53.7377C68.2184 53.83 72.1889 52.8139 76.0968 52.0749C83.5062 50.6277 91.0092 50.0735 98.4499 50.4123C100.201 50.5046 102.108 50.5663 103.515 49.3655C105.359 47.7951 105.39 44.5929 104.015 42.6531C103.546 42.0066 102.952 41.4216 102.202 41.1752C101.451 40.9289 100.638 40.9905 99.8569 41.0828C91.1656 41.9757 82.4745 43.3612 73.877 45.2394C69.9065 46.1016 65.2485 46.6558 61.4343 48.3186C56.7448 50.4123 61.3717 53.676 64.2793 53.7377Z" fill="#537082"/>
<path d="M102.134 82.7328C106.324 84.3031 107.481 89.3219 108.106 93.6017C112.795 126.732 118.642 159.708 125.676 192.438C126.113 194.409 126.52 196.441 126.176 198.411C125.707 201.183 123.737 203.584 121.486 205.402C114.077 211.435 103.635 212.484 93.9122 213.007C81.0318 213.684 67.9638 213.868 55.3647 211.158C51.9256 210.42 48.1114 209.157 46.6734 206.079C45.7355 204.107 46.0168 201.86 46.2981 199.705C49.3308 176.612 52.3631 153.55 55.427 130.458C56.9278 119.158 57.9283 107.704 59.8978 96.496C60.992 90.2457 63.7118 85.0728 70.5273 83.4102C74.8415 82.3632 79.2497 82.9791 83.5952 83.1946C89.0976 83.5025 96.9759 80.793 102.134 82.7328Z" fill="#67302D"/>
<path d="M35.3838 138.375C36.7281 132.648 38.1038 126.86 40.511 121.718C42.5118 117.469 45.2006 113.743 47.9204 110.11C53.7041 102.32 59.6754 94.7456 65.803 87.3252C66.4281 86.5863 67.1161 85.7858 68.0227 85.7858C69.1795 85.7858 70.0237 87.0789 70.649 88.2489C75.6198 97.2396 78.9963 101.396 76.12 111.311C74.5256 116.73 70.7114 121.256 67.2412 125.197C54.1419 140.1 41.8241 162.269 36.6032 183.175C36.0404 185.392 35.5402 187.732 34.1958 189.364C32.4139 191.55 25.8796 190.165 24.1602 186.901C22.6596 184.068 25.1919 176.124 25.7234 172.922C27.7868 160.914 32.6014 150.137 35.3838 138.375Z" fill="#67302D"/>
<path d="M126.296 109.924C133.831 120.793 137.833 134.248 139.364 147.888C140.896 161.528 142.397 175.876 141.021 189.609C140.959 190.071 140.896 190.594 140.584 190.902C140.271 191.21 139.802 191.21 139.364 191.21C137.895 191.179 133.299 190.656 130.454 190.409C129.423 190.317 128.61 189.455 128.61 188.408C128.61 178.74 127.922 169.072 126.515 159.558C125.546 152.999 124.577 146.102 120.919 140.868C115.636 133.324 108.82 130.584 103.005 123.502C98.2531 117.714 96.1897 109.739 95.877 101.888C95.6582 96.1913 96.815 76.2086 105.913 85.4763C112.978 92.7121 120.45 101.518 126.296 109.924Z" fill="#67302D"/>
<path d="M75.6553 107.245C75.499 116.298 75.3428 125.381 75.499 134.433C75.6241 141.361 75.9368 148.288 75.7179 155.247C75.4366 164.823 74.1547 174.368 71.9663 183.697C71.7161 184.744 71.4348 185.883 70.6533 186.653C69.6216 187.731 67.9959 187.946 66.4953 188.1C59.461 188.839 51.989 189.486 45.6738 186.376C45.236 186.16 44.7671 185.883 44.5483 185.483C44.3294 185.083 44.3294 184.621 44.3607 184.19C44.5171 182.342 45.2673 180.618 45.7364 178.832C46.8619 174.553 46.2991 170.026 46.7681 165.623C47.1432 162.236 48.1436 158.942 49.0502 155.647C54.0835 137.697 57.21 119.253 58.398 100.656C58.5855 97.7618 58.7106 94.806 59.5859 92.0347C60.4301 89.2637 62.1182 86.585 64.6819 85.1686C66.3702 84.214 68.2459 82.3975 70.1842 82.2435C71.8412 82.0896 75.1551 81.4429 75.9679 83.044C76.7808 84.676 75.9992 90.2489 75.9679 92.0964C75.8428 97.1151 75.749 102.165 75.6553 107.245Z" fill="#333333"/>
<path d="M89.4747 92.935C90.3189 109.716 91.1629 126.466 91.9757 143.246C92.5697 155.1 93.1638 166.985 92.601 178.809C92.5386 179.979 92.5074 181.241 93.1327 182.226C93.9767 183.52 95.696 183.92 97.2592 184.105C104.825 185.09 112.578 184.443 119.863 182.226C121.082 181.857 122.395 181.364 123.051 180.287C123.583 179.394 123.583 178.316 123.552 177.3C122.833 152.391 114.079 128.498 109.296 104.05C107.983 97.3378 106.951 90.5025 104.731 84.0365C104.512 83.39 104.262 82.7433 103.731 82.3124C103.137 81.8504 102.324 81.8197 101.574 81.7889C98.1034 81.6965 94.6644 81.6042 91.1942 81.5116C87.1611 81.4193 89.3496 90.441 89.4747 92.935Z" fill="#333333"/>
<path d="M71.3725 162.829C71.56 162.829 71.7476 162.829 71.9038 162.706C72.0602 162.583 72.06 162.367 72.06 162.152C72.06 161.259 72.0291 160.397 72.0291 159.504C65.6512 160.181 59.2109 157.934 52.8019 158.549C52.677 158.549 52.5519 158.58 52.4581 158.672C52.3331 158.765 52.3331 158.949 52.3331 159.104C52.3331 160.674 52.1768 161.505 53.7712 161.967C55.522 162.46 57.8041 162.275 59.6173 162.398C63.5253 162.614 67.4645 162.829 71.3725 162.829Z" fill="#1F1F1F"/>
<path d="M70.6807 146.046C70.8058 146.046 70.9621 146.077 71.0872 145.985C71.1809 145.892 71.2123 145.738 71.2123 145.584C71.2123 145.03 71.2123 144.476 71.2123 143.921C71.2123 143.768 71.2123 143.614 71.1185 143.491C70.9621 143.275 70.6183 143.275 70.3681 143.275C67.6169 143.491 64.8344 143.552 62.0832 143.521C59.8949 143.491 56.4871 142.628 54.455 143.275C55.0178 145.4 58.9883 145.03 60.6139 145.184C63.928 145.461 67.3043 145.738 70.6807 146.046Z" fill="#1F1F1F"/>
<path d="M115.946 157.997C116.196 157.997 116.446 157.997 116.603 158.181C116.728 158.304 116.728 158.489 116.759 158.674C116.791 159.166 116.822 159.659 116.884 160.152C116.884 160.244 116.884 160.367 116.822 160.46C116.759 160.552 116.603 160.583 116.478 160.583C110.538 160.952 104.598 161.322 98.6576 161.691C98.5013 161.691 98.3138 161.691 98.22 161.599C98.0949 161.507 98.0636 161.353 98.0636 161.199C97.751 158.489 103.847 158.859 105.817 158.643C109.162 158.274 112.57 158.058 115.946 157.997Z" fill="#1F1F1F"/>
<path d="M113.481 144.634C113.762 144.634 114.075 144.634 114.231 144.449C114.388 144.264 114.387 143.987 114.387 143.772C114.387 143.371 114.356 142.94 114.356 142.54C114.356 142.386 114.356 142.263 114.262 142.14C114.137 142.017 113.919 142.017 113.731 142.017C108.322 142.294 102.882 142.571 97.4739 142.848C97.3489 142.848 97.2238 142.879 97.1614 142.94C97.0988 143.002 97.0674 143.125 97.0674 143.217C96.7861 146.543 101.413 144.911 103.57 144.788C106.853 144.603 110.167 144.541 113.481 144.634Z" fill="#1F1F1F"/>
</g>
</g>
</svg>
