




<svg width="168" height="168" viewBox="0 0 168 168" fill="none" xmlns="http://www.w3.org/2000/svg">
<circle cx="84" cy="84" r="84" fill="#2093EE" fill-opacity="0.7"/>
<mask id="mask0_158_734" style="mask-type:alpha" maskUnits="userSpaceOnUse" x="0" y="0" width="168" height="168">
<circle cx="84" cy="84" r="84" fill="#C5C5C5"/>
</mask>
<g mask="url(#mask0_158_734)">
<path d="M58.6512 73.8132C56.9296 74.8774 55.5835 76.3487 54.3316 77.82C45.9737 87.7742 40.7462 99.3248 36.1447 110.844C33.6718 117.042 31.3241 123.49 31.7937 129.939C31.8563 130.659 31.9502 131.41 32.3258 132.036C32.6702 132.662 33.2649 133.132 33.8596 133.57C34.83 134.29 35.8317 134.978 36.8647 135.573C37.6473 136.043 38.4924 136.481 39.4628 136.543C40.308 136.575 41.1531 136.325 41.9357 135.949C45.0973 134.446 47.0067 131.473 48.071 128.53C49.1353 125.556 49.5109 122.489 50.6692 119.546C51.6395 117.073 53.1108 114.788 54.4568 112.441C56.3349 109.154 57.994 105.805 59.6217 102.424C61.4059 98.7614 63.1902 95.099 64.4735 91.3114C65.6005 88.0559 66.3518 84.6752 68.1046 81.5763C68.9812 80.0425 70.0767 78.6025 70.5775 76.9748C72.5497 70.7455 62.658 71.3716 58.6512 73.8132Z" fill="#4D4D4D"/>
<path d="M128.275 148.458C128.118 140.82 127.837 133.182 127.367 125.545C126.772 115.59 126.397 105.354 124.581 95.494C123.423 89.2961 121.044 82.6915 115.284 79.0291C113.844 76.0553 111.747 73.5509 108.586 72.1424C107.615 70.7024 105.737 70.5146 104.234 71.2034C103.045 70.6085 101.48 70.5146 100.228 71.5163C99.2262 72.2988 98.3496 73.144 97.5046 74.0206C93.6856 73.6762 89.8354 73.0188 86.0477 73.6762C82.1662 74.3335 76.6883 73.3945 71.8678 73.5509C71.2103 71.5163 68.3305 70.1077 66.5149 72.2363C65.1689 73.7701 63.9794 75.3978 62.8525 77.0256C61.8509 78.1838 61.0057 79.5299 60.2859 81.0637C55.6843 88.9519 52.9297 97.6539 51.3645 106.575C45.9179 126.358 45.5423 147.425 46.4501 167.991C46.4501 168.116 46.4188 168.272 46.4501 168.398L47.0761 185.239C47.2639 190.435 47.0761 195.788 48.2656 200.89C50.0811 208.653 55.5591 206.994 65.4819 207.683C67.4227 207.808 69.2382 209.06 68.9879 207.808C69.8018 207.839 70.6156 207.87 71.4609 207.902C71.7425 207.902 72.0556 207.933 72.3373 207.933C72.4311 207.933 72.4939 207.933 72.5878 207.933C75.9371 208.027 79.3177 207.996 82.3542 207.933C82.667 207.933 82.9489 207.933 83.2619 207.902C84.107 209.154 85.9538 209.905 87.5502 209.466C88.4268 209.216 89.3032 208.997 90.1798 208.778C90.4928 208.872 90.837 208.934 91.2128 208.966C91.9328 208.997 92.6526 209.028 93.3725 209.06C94.5933 209.811 96.1897 209.937 97.3793 209.06C103.327 208.903 109.18 207.996 114.846 206.399L119.635 205.867C120.168 205.804 120.7 205.648 121.201 205.397C122.891 205.585 124.8 204.803 125.301 202.956C130.028 184.863 130.435 166.614 128.275 148.458Z" fill="#333333"/>
<path d="M101.229 39.0938C101.229 30.8612 93.3723 24.1937 83.6373 24.1937C73.9334 24.1937 66.0451 30.8612 66.0451 39.0938C66.0451 40.4711 66.2956 41.7857 66.7025 43.0692C66.7025 43.3823 66.7339 43.7265 66.7339 44.0709C66.6712 47.0447 66.8278 50.0184 67.4539 52.9609C68.7058 58.6579 71.9301 63.9481 78.0341 67.2035C80.0688 68.2677 82.4165 69.1129 84.8581 69.0816C88.1447 69.0502 91.1499 67.5166 93.4037 65.607C100.916 59.3152 101.574 49.8618 101.042 40.9093C101.167 40.3146 101.229 39.7198 101.229 39.0938Z" fill="#EDD5BE"/>
<path d="M105.609 41.252C105.421 38.8417 105.045 36.5254 104.419 34.209V34.1776C104.012 31.7986 103.637 29.451 103.261 27.072C103.167 26.4146 102.76 25.8512 102.071 25.726C99.442 25.2252 96.8126 24.8495 94.1519 24.5677C92.3675 23.6286 90.1139 23.1905 88.1104 23.3783C86.6706 23.1905 85.1993 23.253 83.9785 23.4095C83.2272 23.5034 82.4133 23.66 81.6308 23.9104C80.2536 23.8791 78.8762 23.9418 77.5301 24.067C74.5877 21.3123 67.7951 22.0949 65.7604 25.5069C65.3535 26.1955 65.1343 26.8529 65.0718 27.4789C62.4111 28.1363 59.7817 29.7639 58.9992 32.4873C58.5922 33.8333 58.78 35.3359 59.6251 36.4628C60.0947 37.1201 60.7833 37.4644 61.5033 37.7774C61.785 38.1217 62.1294 38.4661 62.4736 38.7791C62.7866 39.3112 63.2249 39.7495 63.8824 40.1251C64.1327 40.2816 64.4144 40.3129 64.6649 40.3129C64.8527 40.4381 65.0405 40.532 65.1971 40.626C66.3865 41.3459 67.5134 39.9999 67.2629 38.873C67.4195 38.56 67.4507 38.1844 67.3882 37.8087C67.889 37.214 68.3586 36.5253 68.8281 36.0245C69.3915 35.7427 69.9237 35.4611 70.5184 35.2107C70.5811 35.1794 70.6436 35.1793 70.7063 35.148C70.8002 35.1167 70.8628 35.0854 70.9567 35.0541C71.8331 34.7411 72.6783 34.6785 73.4922 34.8037C73.5861 34.835 73.6488 34.8663 73.7427 34.8663C74.3999 35.0541 75.0574 35.242 75.746 35.3985C76.1529 35.555 76.5912 35.7428 76.9981 35.9306C77.4362 36.1184 77.8745 36.0558 78.2501 35.868C82.1944 36.4628 86.3262 36.4941 90.3328 36.2749C92.1797 37.9027 95.4979 37.4957 97.3134 35.9306L97.3448 35.8993C97.4073 36.588 97.2507 37.3079 96.8438 37.9652C96.5935 38.3721 96.6248 39.0608 96.9065 39.4364C97.7204 40.4381 98.0959 41.5337 98.0334 42.8172C98.002 43.8502 99.129 44.3197 99.9428 44.1319C100.193 44.0692 100.162 44.9458 100.068 45.8222C99.9742 45.603 99.7237 45.4466 99.4106 45.5405C97.5951 46.1039 95.7482 46.6674 93.9015 47.1682C93.7136 46.5735 93.338 46.0725 92.6494 45.7908C91.6477 45.3839 90.333 45.5405 89.3 45.5405C87.1401 45.5405 84.9802 45.5719 82.8203 45.5405C82.5386 45.5405 82.3508 45.6971 82.2883 45.8849C81.9752 45.8849 81.6622 45.8849 81.3805 45.8849C81.0361 45.8849 80.7544 46.1352 80.7544 46.4483C80.7544 47.1996 80.7544 47.9194 80.7856 48.6707C80.3787 48.6394 80.0031 48.6082 79.6275 48.6082C78.7823 48.5768 77.9371 48.5768 77.092 48.5768C77.0607 48.1699 77.0293 47.763 76.9981 47.3874C77.0293 47.043 77.0607 46.7299 77.0607 46.3855C77.0607 46.0725 76.779 45.8222 76.4346 45.8222H76.2782C76.2468 45.8222 76.2154 45.7908 76.1529 45.7908C74.2121 45.6969 72.2714 45.5719 70.3306 45.478C68.9845 45.4152 67.169 44.977 65.917 45.4152C64.0702 46.0413 64.3518 48.2012 64.571 49.9542C64.3832 50.7054 64.3518 51.4567 64.7588 51.8948C65.0718 52.2706 65.5101 52.3018 65.9482 52.3645C67.3882 52.6148 69.0784 52.3958 70.5184 52.3958C71.927 52.3958 75.0574 53.0217 76.2468 52.0201C76.779 51.5506 76.9981 50.7054 77.0607 49.7663C77.092 49.7663 77.1232 49.7663 77.1546 49.7663C77.1859 49.9542 77.3112 50.1107 77.5615 50.142C78.657 50.3298 79.7839 50.4237 80.8797 50.3612C81.13 51.2376 81.7561 51.9887 82.9142 52.3645C84.4168 52.8965 86.4829 52.4895 88.0792 52.5523C88.987 52.5834 89.8634 52.5836 90.6147 52.2706C91.272 52.2079 91.9294 52.114 92.5555 51.9887C92.7119 51.9575 92.8372 51.8323 92.9311 51.707C93.1189 51.6759 93.3066 51.5506 93.3694 51.3628C93.651 50.5176 94.058 49.2654 94.058 48.1074C95.936 47.5438 97.8456 47.0116 99.755 46.4794C99.8803 46.4483 99.9742 46.3855 100.037 46.2916C99.9428 46.8864 99.8489 47.4186 99.8176 47.5126C99.4734 48.8899 98.8473 50.0481 98.0959 51.2062C97.7829 51.6759 97.9395 52.6148 98.409 52.9592C98.7534 53.2095 99.0976 53.3661 99.4106 53.5226C98.9725 55.6199 97.8768 57.6232 96.7499 59.5327C95.4979 61.6612 92.3677 63.5395 90.4581 65.1986C88.5487 66.8888 85.9193 68.0784 83.2272 67.8905C82.883 67.8593 82.5074 67.8279 82.1944 67.6713C81.5369 67.3585 81.2864 66.6383 81.0675 65.9811C80.8795 65.3236 80.6605 64.635 80.0031 64.2594C79.377 63.8839 78.2501 64.2281 78.344 64.8855C78.4067 65.3236 78.9075 65.6367 78.9075 66.075C78.9075 66.5758 78.2189 66.8575 77.6554 66.7322C77.1232 66.6071 76.7476 66.2002 76.3721 65.7933C75.5268 64.8542 74.6816 63.915 73.8677 63.0073C73.5235 62.6003 73.1166 62.2873 72.5844 62.5064C73.273 63.9778 74.6504 65.3863 75.6207 66.7322C76.4346 67.8279 77.2798 68.9548 78.5006 69.706C79.9717 70.5826 81.7873 70.8329 83.5716 70.8643C85.7315 70.8956 87.9853 70.6451 89.707 69.4868C90.9589 68.673 93.9954 66.2316 94.7779 65.0419C97.376 61.0665 99.0351 58.3432 100.444 53.9295C100.444 53.867 100.475 53.8356 100.475 53.7731C102.76 53.8356 104.106 50.9871 104.701 48.5768C105.17 46.6047 105.39 44.445 104.983 42.5355C105.421 42.3164 105.671 41.8781 105.609 41.252ZM75.3704 50.1107C75.339 50.2046 75.2765 50.2984 75.2451 50.3923C73.3983 50.5801 71.4889 50.8306 69.6733 50.7367C68.7656 50.7054 68.0456 50.5176 67.5448 50.1107V50.0793C67.5448 49.0151 67.5759 47.9196 67.5759 46.8552C68.7967 46.8552 69.9864 46.8552 71.2072 46.8552C72.6469 46.8866 74.0557 46.9491 75.4955 46.9804C75.5582 47.5124 75.6207 48.1387 75.6207 48.7021C75.5268 49.1715 75.4643 49.641 75.3704 50.1107ZM91.6789 49.0151C91.4286 50.0481 91.1155 50.7679 90.1451 51.1748C88.5173 51.3626 86.8896 51.394 85.2619 51.2687C83.916 51.1437 83.4463 51.1437 83.3213 49.8915C83.2899 49.6726 83.2899 49.4532 83.2899 49.2341C83.3525 49.0776 83.3525 48.8899 83.2899 48.7332C83.2899 48.2012 83.3211 47.6377 83.3524 47.1055C86.0132 47.1055 88.6739 47.1057 91.3347 47.1369C91.5225 47.2621 91.6477 47.4186 91.7416 47.6065C91.7416 47.9821 91.7416 48.389 91.7416 48.7646C91.7103 48.8585 91.6789 48.9212 91.6789 49.0151Z" fill="#333333"/>
<path d="M65.2279 101.385C63.4749 98.5047 61.4089 95.9067 59.3428 93.2771C57.4959 90.9294 57.3082 87.7053 54.7727 85.8273C52.2999 84.0116 49.0756 83.9804 46.1332 84.2621C45.5698 84.3246 45.0689 84.5126 44.662 84.7943C44.3803 84.9195 44.1298 85.1073 43.9107 85.3263C43.0029 85.5142 42.1265 85.8273 41.1874 86.1715C39.3719 86.8915 38.8084 88.707 39.6849 90.3972C43.6603 98.317 47.8236 106.236 54.2407 112.497C55.0857 113.342 56.2126 113.373 57.1517 112.998C57.6839 113.186 58.2786 113.311 58.9047 113.311C60.5636 113.311 62.2853 112.998 63.913 112.716C65.6034 112.434 67.1685 112.121 68.045 110.462C69.6101 107.583 66.699 103.764 65.2279 101.385Z" fill="#909294"/>
<path d="M69.8641 107.361C64.7306 99.9109 59.6596 92.4297 54.5259 84.9796C53.8373 83.978 52.7104 84.0092 51.959 84.5413C49.2671 84.4161 46.6064 84.3849 43.9144 84.4788C42.4744 84.5413 40.878 84.4788 40.1581 85.9186C39.9389 86.3569 40.2833 86.7951 40.7528 86.7951C44.1335 86.8265 47.5142 86.889 50.8949 86.9204C51.0513 87.1707 51.3643 87.2334 51.6148 87.1082C56.6858 94.4955 61.7568 101.883 66.7966 109.302C68.1113 111.305 71.2102 109.302 69.8641 107.361Z" fill="#606060"/>
<path d="M97.8692 133.785C93.8625 131.03 89.7618 128.463 85.5361 126.084C82.437 122.703 78.806 119.792 74.7992 117.445C73.5159 116.693 72.2951 116.944 71.4812 117.695C71.2934 117.726 71.0743 117.758 70.8863 117.852C70.2604 117.445 69.6343 117.1 69.0396 116.944C68.6327 117.132 68.2569 117.319 67.8813 117.57C67.8188 117.601 67.5683 117.789 67.3805 117.914C67.1927 118.071 66.817 118.352 66.817 118.352C66.6605 118.509 66.4727 118.634 66.3161 118.791C66.2536 120.293 67.1614 122.39 68.0691 124.081L70.5734 128.62C70.6673 128.807 70.7612 129.027 70.8863 129.214C70.9177 129.277 70.949 129.34 70.9804 129.371L74.9556 136.602C75.2061 136.696 75.4878 136.821 75.7383 136.977C76.5834 138.261 77.4599 139.544 78.3991 140.796C79.8077 144.834 82.9379 148.152 86.8819 150.406C91.9529 153.286 101.187 157.481 104.912 150.625C108.575 143.958 103.097 137.353 97.8692 133.785Z" fill="#4D4D4D"/>
<path d="M114.499 89.6777C113.748 88.2377 111.901 87.6744 110.461 88.1752C109.303 88.1438 108.051 88.363 106.705 88.989C98.9421 92.4323 97.1578 102.23 95.4988 109.586C93.1511 120.01 91.6173 130.747 93.2762 141.421C93.4642 142.673 94.2153 143.455 95.0919 143.831C95.0292 145.021 94.998 146.21 95.0292 147.4C95.0606 149.372 96.5005 150.217 97.9716 150.185C98.5352 150.436 99.0674 150.561 99.5368 150.592C100.163 151.093 100.945 151.375 101.853 151.281C111.494 150.123 110.775 137.696 112.308 130.59C113.31 125.895 114.719 121.387 116.44 116.911C118.037 112.716 119.696 108.428 119.946 103.889C120.197 99.3502 118.35 92.6514 114.499 89.6777Z" fill="#4D4D4D"/>
<path d="M66.6027 119.605C66.9157 119.542 67.1974 119.449 67.4791 119.292C68.7938 118.603 69.3259 117.257 69.5763 115.849C69.9207 113.845 69.7015 111.78 69.5763 109.745C68.7624 108.43 67.7921 107.209 66.4461 106.364C66.1957 106.646 65.9766 106.959 65.7261 107.241L66.4461 109.087C65.3191 107.835 63.9733 106.74 62.5333 105.832C61.1247 104.956 59.2151 104.298 58.151 105.3C57.1179 106.27 57.744 108.086 58.4952 109.494C60.5926 113.219 63.4411 116.506 66.6027 119.605Z" fill="#EDD5BE"/>
<path d="M40.2209 107.086C40.3148 106.209 40.4087 105.301 40.9095 104.613C41.5043 103.799 42.5686 103.392 43.1946 102.61C44.0085 101.639 44.0398 100.23 44.6971 99.1663C45.2919 98.1646 46.3562 97.5072 47.5144 97.4133C48.6725 97.3194 49.8308 97.8202 50.5506 98.6966C51.8342 100.262 51.615 102.578 51.0828 104.519C50.3629 107.242 49.2673 109.84 47.7961 112.251C47.5144 112.72 47.2013 113.19 46.7631 113.471C45.8866 114.004 44.791 113.722 43.8207 113.44C42.5059 113.065 40.44 112.939 39.9078 111.468C39.4696 110.216 40.2209 108.369 40.2209 107.086Z" fill="#EDD5BE"/>
<path d="M93.5277 72.7981C86.7037 72.1722 79.7545 72.7044 72.8993 72.047C72.3985 71.9844 71.741 72.4851 71.6785 72.9861C71.428 74.6138 71.3966 74.4886 71.5846 76.1163C71.6158 76.4605 71.8036 76.7424 72.0227 76.9302C72.1793 81.782 72.7115 86.6027 73.494 91.392C74.1826 95.5864 74.6209 100.345 76.7807 104.069C77.1564 104.727 78.0642 104.664 78.4711 104.069C82.1961 98.529 86.0462 93.0509 90.0217 87.6669C91.8999 85.1314 93.9032 82.6586 95.7501 80.0917C96.564 78.9648 98.3481 77.2746 98.1603 75.6155C97.8161 73.2052 95.5623 72.9861 93.5277 72.7981Z" fill="#4D4D4D"/>
</g>
</svg>




